<svg width="600" height="420" viewBox="0 0 600 420" fill="none" xmlns="http://www.w3.org/2000/svg">
  <rect width="600" height="420" rx="32" fill="#EEF1F4"/>
  <rect x="40" y="70" width="520" height="280" rx="28" fill="#FFFFFF"/>
  <rect x="80" y="100" width="200" height="200" rx="24" fill="#D6DDE2"/>
  <rect x="310" y="120" width="200" height="160" rx="24" fill="#E2D7CF"/>
  <rect x="330" y="150" width="160" height="16" rx="8" fill="#C9BDB3"/>
  <rect x="330" y="180" width="140" height="12" rx="6" fill="#DCD2CB"/>
  <rect x="330" y="200" width="120" height="12" rx="6" fill="#DCD2CB"/>
  <rect x="110" y="220" width="140" height="60" rx="20" fill="#E7EDF1"/>
  <rect x="120" y="190" width="120" height="14" rx="7" fill="#F4F7FA"/>
  <rect x="320" y="250" width="140" height="60" rx="20" fill="#F2EAE2"/>
  <rect x="120" y="320" width="80" height="10" rx="5" fill="#CBD4DB"/>
  <rect x="420" y="320" width="60" height="10" rx="5" fill="#DCD2CB"/>
  <rect x="450" y="110" width="70" height="24" rx="12" fill="#1F2C46" opacity="0.85"/>
</svg>
