<svg width="600" height="420" viewBox="0 0 600 420" fill="none" xmlns="http://www.w3.org/2000/svg">
  <rect width="600" height="420" rx="32" fill="#F5F6F0"/>
  <rect x="50" y="75" width="500" height="270" rx="28" fill="#FFFFFF"/>
  <rect x="80" y="120" width="200" height="160" rx="24" fill="#D9DDE0"/>
  <rect x="110" y="150" width="140" height="100" rx="18" fill="#A1AAB2" opacity="0.7"/>
  <rect x="320" y="150" width="190" height="120" rx="22" fill="#D7C7B5"/>
  <path d="M320 210 H510" stroke="#C6B6A3" stroke-width="12" stroke-linecap="round"/>
  <rect x="340" y="190" width="140" height="12" rx="6" fill="#E8DAC9"/>
  <rect x="340" y="170" width="120" height="12" rx="6" fill="#E8DAC9"/>
  <rect x="125" y="240" width="260" height="60" rx="24" fill="#E4E7E9"/>
  <rect x="140" y="220" width="220" height="16" rx="8" fill="#F5F7F8"/>
  <path d="M110 270 H360" stroke="#CAD0D5" stroke-width="12" stroke-linecap="round"/>
  <rect x="430" y="120" width="70" height="26" rx="13" fill="#1F2C46" opacity="0.85"/>
  <rect x="170" y="320" width="70" height="8" rx="4" fill="#CBD0D5"/>
  <rect x="420" y="320" width="50" height="8" rx="4" fill="#CBD0D5"/>
</svg>
