<svg width="600" height="420" viewBox="0 0 600 420" fill="none" xmlns="http://www.w3.org/2000/svg">
  <rect width="600" height="420" rx="32" fill="#F1F4F8"/>
  <rect x="40" y="80" width="520" height="260" rx="28" fill="#FFFFFF"/>
  <rect x="80" y="110" width="190" height="180" rx="28" fill="#ECE5F0"/>
  <rect x="110" y="140" width="130" height="110" rx="20" fill="#D8C4E8"/>
  <rect x="310" y="160" width="220" height="110" rx="24" fill="#BFCAD7"/>
  <rect x="330" y="150" width="160" height="18" rx="9" fill="#8396AC" opacity="0.5"/>
  <rect x="330" y="190" width="180" height="12" rx="6" fill="#C9D4E1"/>
  <rect x="330" y="210" width="120" height="12" rx="6" fill="#C9D4E1"/>
  <rect x="330" y="230" width="140" height="12" rx="6" fill="#C9D4E1"/>
  <rect x="120" y="260" width="240" height="60" rx="24" fill="#E1D2F3"/>
  <rect x="140" y="240" width="200" height="16" rx="8" fill="#F2EBFB"/>
  <path d="M100 280 H360" stroke="#CEBDE6" stroke-width="12" stroke-linecap="round"/>
  <rect x="430" y="115" width="70" height="26" rx="13" fill="#1F2C46" opacity="0.85"/>
  <rect x="150" y="320" width="80" height="8" rx="4" fill="#CBD4E2"/>
  <rect x="410" y="320" width="50" height="8" rx="4" fill="#CBD4E2"/>
</svg>
